<?xml version="1.0" encoding="UTF-8" standalone="no"?>
<!-- Generator: Adobe Illustrator 15.0.0, SVG Export Plug-In . SVG Version: 6.00 Build 0)  -->

<svg
   xmlns:dc="http://purl.org/dc/elements/1.1/"
   xmlns:cc="http://creativecommons.org/ns#"
   xmlns:rdf="http://www.w3.org/1999/02/22-rdf-syntax-ns#"
   xmlns:svg="http://www.w3.org/2000/svg"
   xmlns="http://www.w3.org/2000/svg"
   xmlns:sodipodi="http://sodipodi.sourceforge.net/DTD/sodipodi-0.dtd"
   xmlns:inkscape="http://www.inkscape.org/namespaces/inkscape"
   version="1.1"
   x="0px"
   y="0px"
   width="30px"
   height="30px"
   viewBox="0 0 30 30"
   enable-background="new 0 0 30 30"
   xml:space="preserve"
   id="svg2"
   inkscape:version="0.48.4 r9939"
   sodipodi:docname="intervalTriggerImage.svg"
   inkscape:export-filename="C:\Users\me\momentics-workspace\NightlyClock\assets\images\pullDownInterval.png"
   inkscape:export-xdpi="288"
   inkscape:export-ydpi="288"><metadata
   id="metadata19"><rdf:RDF><cc:Work
       rdf:about=""><dc:format>image/svg+xml</dc:format><dc:type
         rdf:resource="http://purl.org/dc/dcmitype/StillImage" /><dc:title></dc:title></cc:Work></rdf:RDF></metadata><defs
   id="defs17">
	
	
	
	
</defs><sodipodi:namedview
   pagecolor="#ffffff"
   bordercolor="#666666"
   borderopacity="1"
   objecttolerance="10"
   gridtolerance="10"
   guidetolerance="10"
   inkscape:pageopacity="0"
   inkscape:pageshadow="2"
   inkscape:window-width="1920"
   inkscape:window-height="999"
   id="namedview15"
   showgrid="false"
   inkscape:zoom="15.733334"
   inkscape:cx="-2.3959324"
   inkscape:cy="16.29204"
   inkscape:window-x="-9"
   inkscape:window-y="-9"
   inkscape:window-maximized="1"
   inkscape:current-layer="svg2" />
<g
   id="DO_NOT_EDIT_-_BOUNDING_BOX">
	<rect
   id="BOUNDING_BOX"
   fill="none"
   width="30"
   height="30" />
</g>
<path
   style="fill:#0092cc;fill-opacity:1"
   inkscape:connector-curvature="0"
   id="path13"
   d="M 15,2 C 7.819,2 2,7.82 2,15 2,22.18 7.819,28 15,28 22.18,28 28,22.18 28,15 28,7.82 22.18,2 15,2 z m 8.001,7.175 -6.848,6.846 c 0,10e-4 -10e-4,0.003 -0.002,0.004 l -0.654,0.652 c -0.359,0.359 -0.948,0.359 -1.308,0 L 8.958,11.446 c -0.359,-0.359 -0.359,-0.948 0,-1.308 L 9.612,9.484 c 0.359,-0.359 0.947,-0.359 1.307,0 l 4.252,4.251 6.195,-6.194 c 0.359,-0.359 0.948,-0.359 1.308,0 l 0.327,0.326 c 0.359,0.36 0.359,0.948 0,1.308 z" />
</svg>