<?xml version="1.0" encoding="UTF-8" standalone="no"?>
<svg
   xmlns:dc="http://purl.org/dc/elements/1.1/"
   xmlns:cc="http://creativecommons.org/ns#"
   xmlns:rdf="http://www.w3.org/1999/02/22-rdf-syntax-ns#"
   xmlns:svg="http://www.w3.org/2000/svg"
   xmlns="http://www.w3.org/2000/svg"
   xmlns:sodipodi="http://sodipodi.sourceforge.net/DTD/sodipodi-0.dtd"
   xmlns:inkscape="http://www.inkscape.org/namespaces/inkscape"
   version="1.1"
   width="42.02mm"
   height="57.63mm"
   viewBox="0 0 4202 5763"
   preserveAspectRatio="xMidYMid"
   fill-rule="evenodd"
   clip-path="url(#presentation_clip_path)"
   stroke-width="28.222"
   stroke-linejoin="round"
   xml:space="preserve"
   id="svg2"
   inkscape:version="0.48.4 r9939"
   sodipodi:docname="Power_sleep_black_cropped.svg"><metadata
   id="metadata23"><rdf:RDF><cc:Work
       rdf:about=""><dc:format>image/svg+xml</dc:format><dc:type
         rdf:resource="http://purl.org/dc/dcmitype/StillImage" /><dc:title></dc:title></cc:Work></rdf:RDF></metadata><sodipodi:namedview
   pagecolor="#ffffff"
   bordercolor="#666666"
   borderopacity="1"
   objecttolerance="10"
   gridtolerance="10"
   guidetolerance="10"
   inkscape:pageopacity="0"
   inkscape:pageshadow="2"
   inkscape:window-width="1920"
   inkscape:window-height="999"
   id="namedview21"
   showgrid="false"
   inkscape:zoom="1.1557252"
   inkscape:cx="74.444885"
   inkscape:cy="102.1004"
   inkscape:window-x="-9"
   inkscape:window-y="-9"
   inkscape:window-maximized="1"
   inkscape:current-layer="svg2" />
 <defs
   class="ClipPathGroup"
   id="defs4">
  <clipPath
   id="presentation_clip_path"
   clipPathUnits="userSpaceOnUse">
   <rect
   x="0"
   y="0"
   width="4202"
   height="5763"
   id="rect7" />
  </clipPath>
 </defs>
<g
   class="SlideGroup"
   id="g9"
   style="fill:#ffffff">
  <g
   id="g11"
   style="fill:#ffffff">
   <g
   id="id1"
   class="Slide"
   clip-path="url(#presentation_clip_path)"
   style="fill:#ffffff">
    <g
   class="Page"
   id="g14"
   style="fill:#ffffff">
     <g
   class="com.sun.star.drawing.ClosedBezierShape"
   id="g16"
   style="fill:#ffffff">
      <g
   id="id3"
   style="fill:#ffffff">
       <path
   fill="rgb(0,0,0)"
   stroke="none"
   d="M 1341,1435 C 1262,2121 1352,2722 1627,3357 1902,3990 2280,4466 2835,4877 3264,5195 3682,5389 4200,5512 L 4201,5514 C 3694,5734 3213,5805 2664,5742 2114,5679 1662,5501 1218,5172 774,4843 472,4462 252,3955 32,3448 -39,2967 24,2418 87,1869 266,1417 595,973 923,530 1302,228 1808,8 1545,470 1402,907 1341,1435 Z"
   id="path19"
   style="fill:#ffffff" />
      </g>
     </g>
    </g>
   </g>
  </g>
 </g>
</svg>