<?xml version="1.0" encoding="UTF-8" standalone="no"?>
<!-- Generator: Adobe Illustrator 15.0.2, SVG Export Plug-In . SVG Version: 6.00 Build 0)  -->

<svg
   xmlns:dc="http://purl.org/dc/elements/1.1/"
   xmlns:cc="http://creativecommons.org/ns#"
   xmlns:rdf="http://www.w3.org/1999/02/22-rdf-syntax-ns#"
   xmlns:svg="http://www.w3.org/2000/svg"
   xmlns="http://www.w3.org/2000/svg"
   xmlns:sodipodi="http://sodipodi.sourceforge.net/DTD/sodipodi-0.dtd"
   xmlns:inkscape="http://www.inkscape.org/namespaces/inkscape"
   version="1.1"
   id="Layer_1"
   x="0px"
   y="0px"
   width="512px"
   height="515.588px"
   viewBox="0 0 512 515.588"
   enable-background="new 0 0 512 515.588"
   xml:space="preserve"
   inkscape:version="0.48.4 r9939"
   sodipodi:docname="download.svg"><metadata
   id="metadata9"><rdf:RDF><cc:Work
       rdf:about=""><dc:format>image/svg+xml</dc:format><dc:type
         rdf:resource="http://purl.org/dc/dcmitype/StillImage" /><dc:title></dc:title></cc:Work></rdf:RDF></metadata><defs
   id="defs7" /><sodipodi:namedview
   pagecolor="#ffffff"
   bordercolor="#666666"
   borderopacity="1"
   objecttolerance="10"
   gridtolerance="10"
   guidetolerance="10"
   inkscape:pageopacity="0"
   inkscape:pageshadow="2"
   inkscape:window-width="1920"
   inkscape:window-height="999"
   id="namedview5"
   showgrid="false"
   inkscape:zoom="1.2946554"
   inkscape:cx="226.10721"
   inkscape:cy="314.13648"
   inkscape:window-x="-9"
   inkscape:window-y="-9"
   inkscape:window-maximized="1"
   inkscape:current-layer="Layer_1" />
<path
   style="fill:#0092cc;fill-opacity:0.94117647"
   d="M 117.625 0 L 0 98.6875 L 32.90625 137.875 L 150.53125 39.1875 L 117.625 0 z M 394.375 0.125 L 361.46875 39.3125 L 479.09375 138 L 512 98.8125 L 394.375 0.125 z M 255.875 54.78125 C 128.513 54.78125 25.59375 157.9565 25.59375 285.1875 C 25.59375 412.4125 128.513 515.59375 255.875 515.59375 C 383.225 515.59375 486.40625 412.4115 486.40625 285.1875 C 486.40625 157.9565 383.225 54.78125 255.875 54.78125 z M 256 106 C 354.95 106 435.1875 186.2445 435.1875 285.1875 C 435.1875 384.1375 355.075 464.375 256 464.375 C 157.057 464.375 76.8125 384.1375 76.8125 285.1875 C 76.8125 186.2445 157.057 106 256 106 z M 179.1875 182.78125 L 179.1875 234 L 272 234 L 179.1875 341.5 L 179.1875 387.59375 L 332.8125 387.59375 L 332.8125 336.375 L 240 336.375 L 332.8125 228.875 L 332.8125 182.78125 L 179.1875 182.78125 z "
   transform="translate(0,-6.3476563e-6)"
   id="path3" />
</svg>